# xmcd
#
# Track frame offsets:
#	150
#	18631
#	33760
#	52071
#	75686
#	94053
#	122219
#	140584
#	162843
#	183890
#	202251
#	225130
#	251390
#
# Disc length: 3721 seconds
#
# Revision: 1
# Processed by: cddbd v1.5.2PL0 Copyright (c) Steve Scherf et al.
# Submitted via: EZCDAudioConverter 4.0.3.1
#
DISCID=a60e870d
DTITLE=The Rides - Pierced Arrow (Deluxe Edition)
DYEAR=2016
DGENRE=Blues
TTITLE0=Kick Out Of It
TTITLE1=Riva Diva
TTITLE2=Virtual World
TTITLE3=By My Side
TTITLE4=Mr. Policeman
TTITLE5=I've Got To Use My Imagination
TTITLE6=Game On
TTITLE7=I Need Your Lovin'
TTITLE8=There Was A Place
TTITLE9=My Babe
TTITLE10=Same Old Dog (Bonus Track)
TTITLE11=Born In Chicago (Bonus Track)
TTITLE12=Take Out Some Insurance (Bonus Track)
EXTD=
EXTT0=
EXTT1=
EXTT2=
EXTT3=
EXTT4=
EXTT5=
EXTT6=
EXTT7=
EXTT8=
EXTT9=
EXTT10=
EXTT11=
EXTT12=
PLAYORDER=
